<svg xmlns="http://www.w3.org/2000/svg" xmlns:xlink="http://www.w3.org/1999/xlink" viewBox="0 0 64 33"><defs><style>.a{fill:url(#a);}.b{fill:#ebebeb;}.c{filter:url(#b);}</style><linearGradient id="a" x1="1.221" y1="0.5" x2="0" y2="0.5" gradientUnits="objectBoundingBox"><stop offset="0" stop-color="#e0a12a"/><stop offset="1" stop-color="#d81c1c"/></linearGradient><filter id="b" x="8" y="9" width="48.12" height="15.48" filterUnits="userSpaceOnUse"><feOffset dy="1" input="SourceAlpha"/><feGaussianBlur result="c"/><feFlood flood-opacity="0.161"/><feComposite operator="in" in2="c"/><feComposite in="SourceGraphic"/></filter></defs><g transform="translate(-7 -13)"><rect class="a" width="64" height="33" rx="5" transform="translate(7 13)"/><g class="c" transform="matrix(1, 0, 0, 1, 7, 13)"><path class="b" d="M43.55,601.8a4.967,4.967,0,0,1-1.391-3.721,5.71,5.71,0,0,1,.6-2.659,4.364,4.364,0,0,1,1.69-1.8,4.785,4.785,0,0,1,2.47-.64,4.076,4.076,0,0,1,3.191,1.3,5.161,5.161,0,0,1,1.17,3.58v.7H44.62a3.039,3.039,0,0,0,.82,2.02,2.8,2.8,0,0,0,2,.66A4.718,4.718,0,0,0,50.4,600.2l.72,1.72a5.252,5.252,0,0,1-1.71.9,6.566,6.566,0,0,1-2.07.34A5.187,5.187,0,0,1,43.55,601.8Zm1.82-6.421a3.109,3.109,0,0,0-.75,1.841h4.52a2.854,2.854,0,0,0-.6-1.85,1.979,1.979,0,0,0-1.56-.63A2.122,2.122,0,0,0,45.37,595.38ZM34.41,602.7a3.136,3.136,0,0,1-1.27-1.281V603H30.68V588.9h2.5v5.74a2.994,2.994,0,0,1,1.26-1.23,3.947,3.947,0,0,1,1.859-.429,4.038,4.038,0,0,1,3.79,2.38,6.052,6.052,0,0,1,.551,2.66,6.248,6.248,0,0,1-.551,2.69,4.24,4.24,0,0,1-1.54,1.81,4.052,4.052,0,0,1-2.25.64A3.841,3.841,0,0,1,34.41,602.7Zm-.62-6.971a3.649,3.649,0,0,0-.65,2.33,3.692,3.692,0,0,0,.65,2.34,2.466,2.466,0,0,0,3.69-.02,3.735,3.735,0,0,0,.661-2.36,3.572,3.572,0,0,0-.65-2.3,2.529,2.529,0,0,0-3.7.01ZM19.04,599.12v-5.9h2.5v5.92a2.36,2.36,0,0,0,.42,1.54,1.627,1.627,0,0,0,1.32.5,2.152,2.152,0,0,0,1.67-.69,2.607,2.607,0,0,0,.63-1.83v-5.44h2.5V603H25.64v-1.5a3.188,3.188,0,0,1-1.24,1.23,3.59,3.59,0,0,1-1.76.43Q19.04,603.16,19.04,599.12ZM11.92,603V591.02H7.32V588.9H19.1v2.12H14.5V603ZM3.3,603v-9.78H5.8V603Zm-.14-11.86v-2.46H5.92v2.46Z" transform="translate(4.84 -579.68)"/></g></g></svg>